# xmcd
#
# Track frame offsets:
#	150
#	25903
#	43911
#	60135
#	77750
#	102280
#	120049
#	146529
#	178338
#
# Disc length: 2548 seconds
#
# Revision: 2
# Processed by: cddbd v1.5.2PL0 Copyright (c) Steve Scherf et al.
# Submitted via: EasyCDDAExtractor 12.0.4.1
#
DISCID=6c09f209
DTITLE=Willie Nelson - Sings Kris Kristofferson
DYEAR=1979
DGENRE=Country
TTITLE0=Me And Bobby Mcgee
TTITLE1=Help Me Make It Through The Night
TTITLE2=The Pilgrim- Chapter 33
TTITLE3=Why Me
TTITLE4=For The Good Times
TTITLE5=You Show Me Yours
TTITLE6=Loving Her Was Easier (Than Anything I'll Ever Do Again)
TTITLE7=Sunday Mornin' Comin' Down
TTITLE8=Please Don't Tell Me How The Story Ends
EXTD=
EXTT0=
EXTT1=
EXTT2=
EXTT3=
EXTT4=
EXTT5=
EXTT6=
EXTT7=
EXTT8=
PLAYORDER=
